<svg id="Capa_1" data-name="Capa 1" xmlns="http://www.w3.org/2000/svg" viewBox="0 0 497.4 512"><defs><style>.cls-1{fill:#ff4f4f;}</style></defs><title>edition</title><path class="cls-1" d="M270.92,249.55V14.39a14.39,14.39,0,0,0-28.78,0V249.55a73.08,73.08,0,0,0,0,143.27V497.5a14.39,14.39,0,1,0,28.78,0V392.82a73.08,73.08,0,0,0,0-143.27ZM256.53,365.42a44.24,44.24,0,1,1,44.24-44.24A44.27,44.27,0,0,1,256.53,365.42Z" transform="translate(-7.3)"/><path class="cls-1" d="M94.71,128.88V14.39a14.39,14.39,0,1,0-28.78,0V128.88a73.08,73.08,0,0,0,0,143.27V497.5a14.39,14.39,0,1,0,28.78,0V272a73,73,0,0,0,0-143.16ZM80.32,244.75a44.24,44.24,0,1,1,44.24-44.24A44.27,44.27,0,0,1,80.32,244.75Z" transform="translate(-7.3)"/><path class="cls-1" d="M446.07,128.88V14.39a14.39,14.39,0,0,0-28.78,0V128.88a73.08,73.08,0,0,0,0,143.27V497.61a14.39,14.39,0,0,0,28.78,0V272a73,73,0,0,0,0-143.16ZM431.68,244.75a44.24,44.24,0,1,1,44.24-44.24A44.27,44.27,0,0,1,431.68,244.75Z" transform="translate(-7.3)"/></svg>