<?xml version="1.0" encoding="utf-8"?>
<!-- Generator: Adobe Illustrator 21.1.0, SVG Export Plug-In . SVG Version: 6.00 Build 0)  -->
<svg version="1.1" id="Calque_1" xmlns="http://www.w3.org/2000/svg" xmlns:xlink="http://www.w3.org/1999/xlink" x="0px" y="0px"
	 viewBox="0 0 100 125" style="enable-background:new 0 0 100 125;" xml:space="preserve">
<style type="text/css">
	.st0{fill:#FF4F4F;}
</style>
<g>
	<path class="st0" d="M80.8,5H19.2C12.1,5,6.4,10.7,6.4,17.8v64.4c0,7.1,5.7,12.8,12.8,12.8h61.7c7.1,0,12.8-5.7,12.8-12.8V17.8
		C93.6,10.7,87.9,5,80.8,5z M68.1,10.6c5,0,9,4,9,9v48.1c0,5-4,9-9,9H30.9c-4.9,0-9-4-9-9V19.6c0-4.9,4-9,9-9
		C30.9,10.6,68.1,10.6,68.1,10.6z M8.4,17.8c0-6,4.8-10.8,10.8-10.8h54.6L68,8.6H30.9c-6.1,0-11,4.9-11,11v47.7L8.4,79.7V17.8z"/>
</g>
</svg>
