<?xml version="1.0" encoding="utf-8"?>
<!-- Generator: Adobe Illustrator 21.1.0, SVG Export Plug-In . SVG Version: 6.00 Build 0)  -->
<svg version="1.1" id="Capa_1" xmlns="http://www.w3.org/2000/svg" xmlns:xlink="http://www.w3.org/1999/xlink" x="0px" y="0px"
	 viewBox="0 0 512 512" style="enable-background:new 0 0 512 512;" xml:space="preserve">
<style type="text/css">
	.st0{fill:#FF4F4F;}
	.st1{font-family:'MyriadPro-Regular';}
	.st2{font-size:259.497px;}
	.st3{font-size:108.7434px;}
</style>
<g>
	<path class="st0" d="M242.7,6v237.7H5V6H242.7 M247.7,1H0v247.7h247.7V1L247.7,1z"/>
</g>
<g>
	<path class="st0" d="M506.2,6v237.7H268.6V6H506.2 M511.2,1H263.6v247.7h247.7V1L511.2,1z"/>
</g>
<g>
	<path class="st0" d="M243.4,268.8v237.7H5.8V268.8H243.4 M248.4,263.8H0.8v247.7h247.7V263.8L248.4,263.8z"/>
</g>
<g>
	<path class="st0" d="M507,268.8v237.7H269.3V268.8H507 M512,263.8H264.3v247.7H512V263.8L512,263.8z"/>
</g>
<text transform="matrix(1 0 0 1 46.8213 218.5557)" class="st0 st1 st2">A</text>
<text transform="matrix(1 0 0 1 365.499 158.0732)" class="st0 st1 st3">Z</text>
<text transform="matrix(1 0 0 1 93.6396 419.3594)" class="st0 st1 st3">R</text>
<text transform="matrix(1 0 0 1 365.499 419.3594)" class="st0 st1 st3">T</text>
</svg>
